<svg width="820" height="845" viewBox="0 0 820 845" fill="none" xmlns="http://www.w3.org/2000/svg">
<path d="M408.87 773.03C617.358 773.03 786.37 604.018 786.37 395.53C786.37 187.043 617.358 18.03 408.87 18.03C200.383 18.03 31.3701 187.043 31.3701 395.53C31.3701 604.018 200.383 773.03 408.87 773.03Z" fill="#19BD91"/>
<path d="M80.5103 315.25L78.5403 314.91C78.6403 314.33 89.0203 256.46 129.15 212.08L130.63 213.42C90.8902 257.37 80.6103 314.68 80.5103 315.25Z" fill="white"/>
<path d="M135.21 175.4L133.56 174.28C133.88 173.81 166 127.22 217.53 104.49L218.34 106.32C167.35 128.81 135.53 174.94 135.21 175.4Z" fill="white"/>
<path d="M764.33 388.68H762.33C762.33 316.91 729.76 251.86 729.43 251.21L731.21 250.31C731.54 250.96 764.33 316.42 764.33 388.68Z" fill="white"/>
<path d="M725.39 351.26C723.85 322.67 714.54 298.61 714.45 298.37L716.31 297.64C716.4 297.88 725.82 322.23 727.39 351.15L725.39 351.26Z" fill="white"/>
<path d="M17.7702 301.65L15.8102 301.23C15.9302 300.65 28.5602 243.08 72.8202 184.9L74.4102 186.11C30.4202 243.94 17.8902 301.08 17.7702 301.65Z" fill="black"/>
<path d="M80.2903 140.76L78.7603 139.48C78.8803 139.34 90.6103 125.36 105.57 111.24L106.94 112.69C92.0602 126.73 80.4003 140.62 80.2903 140.76Z" fill="black"/>
<path d="M129.75 112.62L128.23 111.32C128.4 111.12 145.54 91.32 178.25 69C208.42 48.41 258.4 21.39 325.21 9.54004L325.56 11.51C259.1 23.3 209.38 50.18 179.38 70.65C146.88 92.82 129.91 112.42 129.75 112.62Z" fill="black"/>
<path d="M785.41 266.87C768.58 198.27 715.18 139.05 714.64 138.46L716.12 137.11C716.66 137.7 770.4 197.31 787.35 266.39L785.41 266.87Z" fill="black"/>
<path d="M800.24 366.74C798.25 341.79 793.49 319.95 789.85 306.02L791.79 305.51C795.45 319.52 800.24 341.48 802.24 366.58L800.24 366.74Z" fill="black"/>
<path d="M811.09 461.04L809.14 460.59C810.86 453.15 812.36 445.08 813.6 436.61L815.58 436.9C814.33 445.42 812.81 453.54 811.09 461.04Z" fill="black"/>
<path d="M819.28 399.47L817.28 399.36C818.85 370.56 817.46 342.79 813.81 330.26L815.73 329.7C819.44 342.43 820.86 370.47 819.28 399.47Z" fill="black"/>
<path d="M787.81 490.58L785.91 489.97C789.42 479.05 792.4 463.85 794.77 444.82L796.75 445.07C794.37 464.22 791.36 479.53 787.81 490.58Z" fill="black"/>
<path d="M798.55 428.36L796.56 428.18C797.29 420.26 797.61 415 797.61 414.94L799.61 415.06C799.6 415.11 799.28 420.42 798.55 428.36Z" fill="black"/>
<path d="M596.05 51.5001C543.64 18.1401 455.86 6.68009 454.98 6.57009L455.23 4.59009C455.45 4.62009 477.68 7.48009 506.13 14.4501C532.41 20.8901 569.52 32.2501 597.13 49.8201L596.05 51.5001Z" fill="black"/>
<path d="M552.33 15.59C538.27 9.39 505.6 2.02 505.27 1.95L505.71 0C506.04 0.07 538.9 7.48 553.14 13.77L552.33 15.59Z" fill="black"/>
<path d="M126.87 684.11C122.63 680.76 118.44 677.25 114.42 673.69L115.75 672.19C119.75 675.73 123.91 679.22 128.12 682.54L126.87 684.11Z" fill="black"/>
<path d="M93.0802 652.71C35.7702 590.21 24.7902 522.01 24.6802 521.33L26.6602 521.03C26.7602 521.71 37.6702 589.33 94.5502 651.36L93.0802 652.71Z" fill="black"/>
<path d="M108.79 647.54C88.2702 630.62 69.0901 592.01 68.9001 591.62L70.6901 590.74C70.8801 591.12 89.8801 629.35 110.06 646L108.79 647.54Z" fill="black"/>
<path d="M307.55 775.94C278.38 770.36 249.56 760.44 221.89 746.45L222.79 744.66C250.3 758.56 278.94 768.42 307.93 773.97L307.55 775.94Z" fill="black"/>
<path d="M186.55 725.84C172.21 716.24 164.18 709.12 164.1 709.05L165.43 707.56C165.51 707.63 173.45 714.67 187.66 724.18L186.55 725.84Z" fill="black"/>
<path d="M426.98 796.95L426.88 794.95C434.28 794.59 441.52 794.03 448.39 793.29L448.61 795.28C441.7 796.03 434.42 796.59 426.98 796.95Z" fill="black"/>
<path d="M400.69 797.41C354.91 796.91 316.55 790.05 316.16 789.98L316.52 788.01C316.9 788.08 355.11 794.92 400.71 795.41L400.69 797.41Z" fill="black"/>
<path d="M181.89 666.21C118.81 621.98 95.5702 551.82 95.3402 551.12L97.2402 550.5C97.4702 551.2 120.52 620.74 183.04 664.57L181.89 666.21Z" fill="white"/>
<path d="M319.81 742.74C270.3 734.04 220.73 700.9 220.24 700.56L221.36 698.9C221.85 699.23 271.08 732.14 320.16 740.76L319.81 742.74Z" fill="white"/>
<path d="M238.36 682.63C225.18 678.5 209.27 663.75 208.6 663.13L209.96 661.67C210.12 661.82 226.21 676.73 238.95 680.73L238.36 682.63Z" fill="white"/>
<path d="M475.24 72.15C465.19 78.27 421.48 103.85 389.93 127.91C384.91 131.74 381.17 136.99 379.2 142.99C375.11 155.48 371.44 169.35 370.4 173.37C370.16 174.3 370.28 175.29 370.76 176.12C373.71 181.32 389.88 199.22 477.98 230.38L498.66 185.65C498.66 185.65 485.6 102.42 481.59 74.62C481.18 71.83 477.97 70.49 475.24 72.15Z" fill="white"/>
<path d="M674.22 572.39L565.77 585.13C548.18 587.2 532.8 597.97 524.85 613.8L476.31 711.33C474.24 715.45 469.64 717.64 465.14 716.65L447.89 712.85C435.79 710.18 423.7 717.36 420.25 729.26L417.55 738.59C416.05 743.76 418.41 749.26 423.19 751.74L502.82 793.01C508.1 795.74 514.59 793.91 517.66 788.82L597.69 658.49L708.3 651.52L674.22 572.39Z" fill="#274D76"/>
<path d="M612.84 489.11L620.75 469.27L686.18 472.78L662.41 562.61L612.84 489.11Z" fill="#274D76"/>
<path d="M604.58 441.16C604.58 441.16 611.77 422.55 611.66 412.44C611.52 398.99 612.98 371.62 604.41 372.91C599.19 373.69 597.63 386.35 596.99 391.79C596.74 393.94 595.91 396 594.47 397.62C592.42 399.93 589.51 400.82 587.98 390.35C585.49 373.29 586.03 340.46 576.12 346.47C571.1 349.52 573.79 379.33 570.95 378.01C568.11 376.69 568.46 331.67 556.38 336.58C552.39 338.2 553.29 359.71 554.11 371.74C554.16 372.41 553.18 372.55 553.03 371.89C551.4 364.62 548.9 354.03 546.9 347.82C544.75 341.13 539.75 344.63 539.75 349.51C539.75 360.01 541.53 382.12 541.53 382.12L604.58 441.16Z" fill="#274D76"/>
<path d="M772.53 500.89L790.53 531.89L748.53 666.89C744.59 680.58 728.93 689.12 714.87 686.78L660.81 680.78C653.87 679.62 651.38 683.18 653.81 689.78L677.14 796.83C681.1 807.6 674.96 819.44 663.87 822.41L583.43 843.91C575.64 845.99 567.86 840.55 567.15 832.52L562.52 804.89C562.33 802.78 561.73 794.31 566.52 790.89C573.52 785.89 584.52 778.89 584.52 778.89C588.23 776.9 588.61 770.95 587.52 766.89L556.96 648.05C551.97 629.46 563.54 615.05 582.53 611.89C606.53 607.89 646.53 598.89 646.53 598.89L663.66 487.14C665.91 478.27 674.1 472.2 683.25 472.64L709.53 473.89L772.53 500.89Z" fill="#D4E7F4"/>
<path d="M762.205 471.512C767.668 448.373 753.34 425.186 730.201 419.722C707.063 414.259 683.876 428.587 678.412 451.726C672.948 474.864 687.277 498.051 710.416 503.515C733.554 508.979 756.741 494.65 762.205 471.512Z" fill="#D4E7F4"/>
<path d="M329.36 461.03L472.42 331.61C479.81 324.92 490.62 325.45 499.37 330.22C517.06 339.87 547.4 357.12 574.46 386.44C597.18 411.06 634.93 450.15 639.39 483.24C639.9 487.03 638.58 490.83 635.93 493.58C592.31 538.77 503.58 622 493.66 630.46C470.18 650.49 409.29 605.27 374.6 564.95C360.11 548.12 311.23 478.13 329.36 461.03Z" fill="white"/>
<path d="M795.43 508.81C782.15 495.74 759.45 496.52 745.45 508.52L695.82 553.72C693.1 555.98 689.07 555.63 686.78 552.94L651.62 511.84C645.96 505.21 642.54 496.97 641.84 488.29L640.57 472.62C640.48 471.56 640.23 470.52 639.81 469.54L633.4 453.04C632.52 450.77 629.46 450.49 628.13 452.53C626.33 455.3 625.35 459.47 625.35 463.61C625.35 471.61 627.23 480.25 624.23 480.25C620.23 480.25 615.48 472.39 613.45 465.01C611.12 456.52 609.96 449.75 605.85 445.99C603.99 444.29 600.68 445.41 600.17 448.24C598.98 454.76 600.35 467.04 600.46 474.01C600.49 476.01 598.7 475.97 598.15 473.54C596.46 466.01 591.85 443 591.85 443C591.12 439.97 586.94 439.62 585.73 442.5C582.27 450.77 583.56 468.76 584.19 475.45C584.25 476.04 583.45 476.28 583.18 475.76C581.51 472.64 578.56 466.5 576.45 458.68C575.98 456.94 573.6 456.56 572.72 458.13C570.07 462.9 571.42 474.29 572.13 478.97C572.2 479.41 571.6 479.61 571.38 479.23C570.23 477.21 569.35 475.3 568.46 473.02C567.31 470.07 564.84 471.76 564.63 473.63C563.93 479.94 563.57 488.96 566.25 500.52C567.22 504.69 570.73 517.2 586.46 536.01L670.46 629.01C685.46 648.01 704.68 643 715.46 635.01C742.46 615.01 792.3 565.74 792.3 565.74C811.26 549.74 807.29 520.48 795.43 508.81Z" fill="#D4E7F4"/>
<path d="M419.79 538.2C369.59 484.54 343.42 469.07 330.64 467.64C327.81 467.32 325.36 469.53 325.38 472.38C325.53 498.52 362.35 550.73 374.59 564.97C402.53 597.46 447.5 633.13 476.2 635.28C478.4 635.44 480.18 633.53 479.93 631.35C478.19 616.01 466.07 587.67 419.79 538.2Z" fill="#F2BDBA"/>
<path d="M371.19 176.85C375.16 186.41 420.78 215.82 477.96 230.39L479.66 226.72C457.47 207.27 419.11 187.75 390.63 180.4C380.19 177.71 374.5 176.46 371.19 176.85Z" fill="#F2BDBA"/>
<path d="M480.69 91.4201C475.45 87.0501 469.22 84.1501 462.19 82.8001L462.57 80.8401C469.94 82.2601 476.46 85.3001 481.97 89.8801L480.69 91.4201Z" fill="black"/>
<path d="M557.15 423.12L535.98 405.39C532.66 402.61 528.35 401.32 524.05 401.84C506.9 403.9 462.06 409.93 447.03 418.19C441.46 421.25 429.4 434.61 429.4 434.61C425.03 439.14 425.01 446.31 429.36 450.87L456.88 481.28C458.79 483.39 462.01 483.63 464.21 481.83L486.21 463.81C488.59 461.86 488.83 458.3 486.73 456.04L482.3 451.3C480.53 449.64 481.35 446.67 483.73 446.16L555.27 430.8C558.83 430.01 559.96 425.47 557.15 423.12ZM524.18 454.13C520.74 451.69 516.46 451.48 513.22 454.16L446.76 509.05C442.76 512.35 442.51 520.38 445.9 524.31C448.53 527.36 453.83 533.44 456.4 536.56C461.15 542.33 468.95 542.51 472.78 539.02L490.72 522.67C492.35 521.19 494.87 521.29 496.37 522.9L500.17 526.98C502.86 529.8 507.3 529.94 510.16 527.3L529.97 509C533.72 505.53 533.75 499.61 530.02 496.11L528.19 494.39C526.48 492.79 526.5 490.06 528.23 488.49L537.35 480.18C540.75 477.08 541.96 470.13 537.67 466.08C537.68 466.08 528.63 457.3 524.18 454.13Z" fill="#74BAAB"/>
<path d="M379.3 182.2C391.91 192.13 424.87 210.19 465.58 223.4L466.92 220.59C450.1 206.3 411.79 188.55 380.12 180.53C379.13 180.28 378.49 181.57 379.3 182.2Z" fill="black"/>
<path d="M333.94 478.03C339.66 470.79 390.2 517.94 407.33 535.41C436.65 565.3 479.23 623.15 468.97 625.85C462.58 627.53 423.05 605.39 381.32 558.22C349.57 522.32 330.41 482.5 333.94 478.03Z" fill="black"/>
<path d="M671.61 60.8301L670.13 51.8501C668.9 44.3801 661.51 40.7201 654.37 43.2601C645.01 46.5801 632.87 50.5201 626.29 55.6401C623.68 57.6701 622.26 60.8701 622.53 64.1601C624.94 93.3901 627.7 116.17 629.01 126.23C629.47 129.8 628.29 133.39 625.79 135.98L596.59 166.35L626.2 181.49L681.63 129.84L671.61 60.8301Z" fill="#274D76"/>
<path d="M477.97 230.39L499.15 184.58C502.82 176.65 510.56 171.4 519.28 170.91L563.17 168.48C573.97 167.88 584.48 164.76 593.86 159.37C601.54 154.96 610.99 155 618.63 159.49C623.65 162.44 629.99 161.89 634.43 158.12L650.28 144.66C652.1 143.11 653.08 140.8 652.93 138.42C652.09 125.68 649.42 83.9601 649.08 63.6201C649.03 60.7901 650.62 58.1801 653.16 56.9401C663.71 51.7901 680.23 49.2801 692.89 51.4401C696.02 51.9701 698.47 54.5401 698.67 57.7101C699.52 71.5901 690.04 86.4601 690.04 86.4601L698.39 149.23C700.23 163.07 694.32 176.8 683.01 184.98L630.28 223.1C626.28 225.99 622.12 228.67 617.82 231.1C607.61 236.89 596.69 241.33 585.34 244.3L544.93 254.87L477.97 230.39Z" fill="#D4E7F4"/>
<path d="M496.14 189.23L520.69 185.51L539.77 205.78L502.79 240.97L483.23 218.87L496.14 189.23Z" fill="#274D76"/>
<path d="M556.199 177.756C561.003 159.375 549.997 140.579 531.616 135.774C513.235 130.969 494.439 141.975 489.635 160.356C484.83 178.737 495.836 197.533 514.217 202.338C532.598 207.143 551.394 196.137 556.199 177.756Z" fill="#D4E7F4"/>
<path d="M434.84 156.44L441.35 146.39C442.45 144.69 441.78 142.41 439.93 141.58L437.21 140.36C435.57 139.62 435.36 137.38 436.84 136.35L465.91 116.2C467.38 115.18 467.05 112.92 465.35 112.35L452.04 107.96C450.46 107.44 448.74 107.67 447.35 108.59L418.73 127.54C416.97 128.7 415.55 130.3 414.59 132.17L410.57 140.01C408.54 143.97 410.28 148.82 414.36 150.58L430.75 157.67C432.24 158.32 433.97 157.79 434.84 156.44ZM469.21 152L467.73 151.08C466.41 150.26 465.91 148.59 466.55 147.18L468.51 142.88C469.66 140.36 468.68 137.38 466.26 136.03L459.69 132.37C457.11 130.94 453.86 131.87 452.45 134.46L432.6 170.64C431.28 173.05 432.01 176.07 434.29 177.61L441.32 182.34C443.91 184.08 447.44 183.22 448.95 180.49L454.64 170.12C455.49 168.58 457.45 168.06 458.95 168.97L459.73 169.45C461.44 170.5 463.68 169.86 464.58 168.07L470.45 156.47C471.27 154.88 470.72 152.94 469.21 152Z" fill="#74BAAB"/>
<path d="M581.72 186.3C572.1 177.71 557.43 178.22 548.42 187.44L521.64 214.86C519.55 217 516.47 217.85 513.58 217.09L473.77 206.64C471.02 205.92 468.53 204.44 466.58 202.37L455.15 190.25C454.2 189.24 452.49 189.42 451.88 190.66C451.25 191.93 450.86 194.01 451.51 197.38C452.95 204.88 448.6 204.86 444.18 201.32C441.9 199.5 438.37 196.66 435.49 194.33C433.3 192.56 430.07 194.14 430.06 196.95C430.04 200.37 430.53 204.29 432.5 206.48C428.48 218.54 435.23 232.86 445.92 238.64C458.26 245.31 524.77 265.86 524.77 265.86C531.23 267.77 538.22 265.98 542.97 261.21L582.74 221.27C592.5 211.49 592.03 195.51 581.72 186.3Z" fill="#D4E7F4"/>
<path d="M502.12 146.26C497.86 149.35 494.54 153.8 492.57 159.1C488.13 171.05 492.32 183.89 501.68 191.56C506.72 195.69 514.41 196.67 522.05 191.95C527.02 188.88 530.78 183.94 532.96 178.08C536.78 167.81 534.2 157.16 527.38 149.53C521.78 143.28 509.22 141.1 502.12 146.26Z" fill="black"/>
<path d="M253.09 533.61C249.27 519.05 245.02 500.29 242.78 493.92C242.69 493.67 242.38 492.98 242.15 492.83C240.14 491.49 228.34 485.84 214.68 488.12C210.45 488.83 195.93 487.48 190.12 491.89C188.32 493.25 187.64 495.55 187.48 497.8C186.66 509.93 184.64 547.41 184.98 560.06C185.04 562.33 186.6 564.37 188.83 564.82C213.44 569.83 242.06 567.52 254.81 557.89C256.22 556.82 257.01 555.13 256.85 553.36C256.53 549.97 255.65 543.36 253.09 533.61Z" fill="white"/>
<path d="M112.47 436.48L71.8102 423.77C69.7002 423.11 68.3802 421.01 68.6902 418.82L74.9703 374.89C75.4103 371.79 73.2603 368.92 70.1603 368.47L44.7603 364.59C43.5703 364.42 41.0103 365.31 41.0103 368.73C41.0103 370.4 41.4703 371.33 42.3203 372.35L46.9103 377.88C47.7703 378.91 48.1403 380.27 47.9203 381.59L42.4903 415.19L61.0803 454.78L106.25 459.61L112.47 436.48Z" fill="#274D76"/>
<path d="M32.1402 379.8L67.4802 435.39C68.4302 436.89 69.9502 437.95 71.6802 438.34L79.6002 440.1C82.2302 440.68 84.9802 440.22 87.2702 438.82L90.3302 436.95C96.4002 433.23 103.79 432.36 110.56 434.57L159.04 450.38L144.87 494.57L97.0702 482.91C92.9202 481.9 88.8402 480.66 84.8302 479.19C78.8702 477.01 70.1502 473.68 64.8402 471.07C51.1502 464.34 46.6602 459.1 44.4302 454.92C37.3402 441.63 19.8202 411.51 17.6102 407.95C14.7402 403.33 8.4302 402.93 5.0802 402.06C3.0102 401.52 1.4902 400.61 0.650204 398.64L0.220211 397.64C-0.289789 396.45 0.110223 395.07 1.17022 394.33L24.3902 378.11C26.9702 376.31 30.5402 377.08 32.1402 379.8Z" fill="#D4E7F4"/>
<path d="M180.66 480.63L223.44 480.6C226.93 480.58 230.53 481.62 232.37 483.73C233.47 484.99 235.43 487.71 236.47 489.02C237.19 489.94 236.93 491.13 235.89 490.88L230.7 489.02L231.62 492.2C232.25 493.92 230.68 494.7 229.35 494.03L224.18 491.59C224.31 493.03 222.79 494.05 221.5 493.38C219.12 492.14 218.21 491.34 214.92 489.1C214.1 488.55 213.13 488.27 212.14 488.32C203.32 488.76 197.1 489.86 191.72 492.06C187.73 493.69 187.63 497.84 187.56 499.14C187.44 501.33 184.48 507.89 184.48 507.89L156.63 502.16L151.7 483.62L180.66 480.63Z" fill="#274D76"/>
<path d="M164.4 485.57C176.528 485.57 186.36 475.326 186.36 462.69C186.36 450.054 176.528 439.81 164.4 439.81C152.272 439.81 142.44 450.054 142.44 462.69C142.44 475.326 152.272 485.57 164.4 485.57Z" fill="#D4E7F4"/>
<path d="M173.95 516.71C173.95 516.71 160.44 540.57 158.41 554.67C157.76 559.21 161.07 563.38 165.63 563.92C169.67 564.39 175.92 564.62 185.33 563.87C183.97 559.62 187.07 521.84 188.4 506.57C188.58 504.52 186.05 503.42 184.66 504.94L173.95 516.71Z" fill="white"/>
<path d="M220.07 505.34C222.96 511.36 233.87 534.33 236.2 543.55C236.49 544.69 235.59 545.77 234.42 545.7C223.75 544.99 213.45 546.55 209.06 547.35C207.94 547.55 206.94 546.64 207.03 545.51L210.01 508.72C210.06 508.07 210.48 507.5 211.08 507.26L217.85 504.5C218.7 504.15 219.67 504.52 220.07 505.34Z" fill="white"/>
<path d="M233.69 536.12C228.75 523.2 219.36 503.88 219.36 503.88L217.15 504.78L227.63 545.52C230.54 545.49 233.58 545.67 236.62 545.96C236.48 544.02 235.33 540.43 233.69 536.12Z" fill="#74BAAB"/>
<path d="M236.63 545.96C236.62 545.79 228.56 539.25 228.56 539.25C227.18 538.2 225.32 538.06 223.81 538.89L208.06 547.52C211.86 546.79 224.24 544.76 236.63 545.96Z" fill="#274D76"/>
<path d="M156.95 469.41C156.58 473.4 157.47 477.15 159.24 480.3C160.43 482.41 162.67 483.77 165.1 483.77C165.11 483.77 165.13 483.77 165.14 483.77C176.08 483.77 184.95 474.53 184.95 463.13C184.95 463.11 184.95 463.08 184.95 463.06C184.93 458.25 181.49 454.16 176.94 453.4C175.55 453.17 174.1 453.11 172.61 453.24C164.39 453.99 157.74 460.86 156.95 469.41Z" fill="black"/>
<path d="M227.8 508.26L223.08 508.81C222.7 508.85 222.51 508.37 222.81 508.14L226.77 505.15C228.32 503.98 227.39 501.52 225.46 501.67C221.17 502 215.64 502.46 211.69 502.88C211.04 502.95 210.75 502.07 211.32 501.74C213.09 500.73 214.02 500.24 215.86 499.21C218.49 497.73 215.9 495.65 212.89 495.76C207.26 495.98 201.65 499.37 197.38 499.37C189.66 499.37 168.29 498.33 168.29 498.33C166.6 498.27 165.03 497.41 164.08 496.01L146.72 470.32C141.86 463.9 132.69 462.71 126.36 467.68C120.35 472.39 119.06 480.98 123.43 487.25L148.85 519.82C151.2 522.83 154.77 524.65 158.59 524.78L213.94 523.94C220.54 523.95 225.18 517.97 225.77 514.86C227.47 513.71 228.68 512.45 229.55 511.31C230.56 509.97 229.48 508.06 227.8 508.26Z" fill="#D4E7F4"/>
<path d="M159.69 271.62C159.69 271.62 164.39 289.28 176.24 313.22C193.04 347.15 201.24 360.74 209.88 375.31C220.4 393.05 252.52 411.04 314.49 372.65C378.7 332.88 368.91 306.68 364.65 297.56C362.13 292.16 341.68 253.94 324.71 224.93C318.09 213.61 311.84 203.94 307.68 197.7C304.22 192.51 298.66 189.14 292.46 188.44C275.56 186.53 239.76 186.72 202.95 213.39C152.2 250.17 159.69 271.62 159.69 271.62Z" fill="white"/>
<path d="M367.23 316.98C368.92 308.45 365.24 299.73 358.07 294.79C339.89 282.25 304.28 281.71 259.13 310.23C209.52 341.57 208.37 368.09 215.75 382.78C230.21 397.05 261.39 405.54 314.48 372.65C352.53 349.09 364.59 330.29 367.23 316.98Z" fill="#F2BDBA"/>
<path d="M225.04 381.81C218.87 372.98 218.75 345.32 265.06 315.53C311.74 285.5 352.69 294.04 358.71 310.23C364.73 326.42 331.19 356.07 293.83 375.05C260.03 392.23 231.88 391.6 225.04 381.81Z" fill="black"/>
<path d="M184.94 557.45C180.87 557.44 176.58 557.66 172.29 558C162.63 558.77 161.33 561.81 162.24 562.74C163.09 563.61 164.38 564.08 165.63 564.22C169.67 564.69 178.01 564.96 186.89 563.92C184.94 561.77 184.95 560.73 184.94 557.45Z" fill="black"/>
<path d="M252.87 497.91C249.98 494.34 248.33 494.78 243.05 494.7C245.29 502.44 249.19 518.75 253.09 533.62C256.99 548.48 257.01 556.04 257.01 556.04C261.91 555.39 265.86 554.66 275.45 553.05C283.28 551.73 283.98 545.25 279.93 539.25L252.87 497.91Z" fill="white"/>
<path d="M253.18 559.04C253.74 557.62 252.82 556.2 250.47 555.04C245.8 552.72 236.66 550.9 218.85 551.9C202.43 552.82 194.1 556.88 189.91 560.46C187.67 562.38 187.82 563.86 189.8 565.06C214.48 571.05 240.01 567.71 253.18 559.04Z" fill="#F2BDBA"/>
<path d="M276.47 553.23C278.45 552.72 278.76 550.6 277.73 549.86C277.29 549.55 276.77 549.23 276.15 548.91C271.28 546.41 263.5 546.44 256.06 547.33C257 553.11 257.17 554.5 256.11 556.46C262.17 556.04 275.88 553.38 276.47 553.23Z" fill="black"/>
<path d="M218.83 265.77C215.92 258.45 215.83 250.29 219.26 244.94C220.06 243.69 221.53 241.65 220.79 240.37L214.35 231.03C212.99 228.67 209.44 230.15 207.81 232.34C199.78 243.17 196.78 257.28 202.78 272.34C211.59 294.49 227.95 300.97 244.81 296.85C247.54 296.18 248.87 293.09 247.46 290.66L242.54 282.51C241.46 280.64 239.39 279.61 237.23 279.78C229.95 280.37 222.75 275.61 218.83 265.77ZM266.86 239.64C254.11 219.45 233.85 216.37 220.58 221.41C218.26 222.29 217.21 224.98 218.45 227.13L225.69 236.94C226.55 238.42 228.25 239.14 229.92 238.82C237 237.45 245.7 240.19 251.43 248.85C255.98 255.73 255.97 266.5 248.75 273.42C247.17 274.94 247.33 277.55 248.43 279.45L253.05 287.42C254.88 290.57 258.97 290.87 261.76 288.54C274.84 277.62 275.8 253.8 266.86 239.64Z" fill="#74BAAB"/>
<path d="M552.49 238.23C551.8 238.23 551.1 238.05 550.46 237.68C545.56 234.83 536.72 229.26 532.57 224.09C531.4 222.63 531.43 220.5 532.66 219.02L545.65 203.36C547.02 201.7 549.45 201.41 551.18 202.69C555.26 205.72 562.69 211.32 566.64 214.82C568.23 216.23 568.48 218.57 567.22 220.27C562.68 226.41 558.15 233.05 555.86 236.45C555.07 237.6 553.79 238.23 552.49 238.23ZM548.76 203.89C548.17 203.89 547.58 204.14 547.18 204.63L534.19 220.29C533.57 221.04 533.54 222.1 534.13 222.83C538.23 227.94 547.62 233.71 551.47 235.95C552.4 236.49 553.59 236.22 554.19 235.33C556.5 231.91 561.04 225.25 565.6 219.07C566.23 218.21 566.11 217.02 565.3 216.31C561.41 212.86 554.03 207.3 549.97 204.29C549.61 204.02 549.18 203.89 548.76 203.89Z" fill="black"/>
<path d="M741.5 594.23C741.25 594.23 741 594.22 740.74 594.19C738.66 593.99 736.79 592.98 735.48 591.36L713.93 564.61C711.37 561.43 711.74 556.8 714.76 554.06L738.58 532.53C740.15 531.11 742.17 530.41 744.27 530.56C746.38 530.71 748.28 531.68 749.64 533.29L772.44 560.46C775.17 563.71 774.74 568.57 771.5 571.3L746.44 592.4C745.04 593.6 743.31 594.23 741.5 594.23ZM716.11 555.55C713.87 557.58 713.6 561 715.49 563.36L737.04 590.11C738.01 591.31 739.39 592.06 740.93 592.21C742.47 592.36 743.97 591.89 745.15 590.9L770.21 569.8C772.61 567.78 772.92 564.18 770.91 561.77L748.11 534.6C747.11 533.4 745.69 532.68 744.13 532.58C742.57 532.48 741.07 532.99 739.92 534.04L716.11 555.55Z" fill="black"/>
<path d="M623.78 547.32L622.22 546.07L633.45 531.98C634.11 531.15 633.88 530.28 633.44 529.74C633 529.2 632.19 528.8 631.24 529.28L618.55 535.81C616.89 536.66 615.01 536.25 613.85 534.8C612.69 533.35 612.73 531.42 613.93 530L625.22 516.67C625.92 515.84 625.69 514.95 625.25 514.4C624.8 513.85 623.99 513.43 623.03 513.94L590.32 530.59L589.41 528.81L622.11 512.16C623.75 511.29 625.65 511.69 626.81 513.14C627.98 514.6 627.95 516.53 626.75 517.96L615.46 531.29C614.76 532.11 614.98 533 615.42 533.55C615.86 534.1 616.67 534.52 617.63 534.03L630.31 527.5C631.94 526.66 633.81 527.05 634.97 528.46C636.13 529.87 636.14 531.79 635 533.22L623.78 547.32Z" fill="black"/>
<path d="M678.222 568.055L663.626 607.415L665.501 608.111L680.097 568.75L678.222 568.055Z" fill="black"/>
<path d="M701.122 576.605L699.235 577.269L716.071 625.104L717.958 624.44L701.122 576.605Z" fill="black"/>
<path d="M700.425 609.721L698.447 610.013L701.92 633.528L703.898 633.236L700.425 609.721Z" fill="black"/>
<path d="M677.923 600.655L674.327 619.495L676.291 619.87L679.887 601.03L677.923 600.655Z" fill="black"/>
<path d="M517.859 222.963L516.101 223.917L534.246 257.35L536.004 256.396L517.859 222.963Z" fill="black"/>
<path d="M517.972 240.73L516.05 241.282L521.653 260.774L523.576 260.221L517.972 240.73Z" fill="black"/>
<path d="M508.928 226.133L507.194 255.423L509.191 255.541L510.925 226.251L508.928 226.133Z" fill="black"/>
<path d="M456.07 237.49L454.14 236.97L459.28 217.75C459.6 216.54 460.69 215.79 461.94 215.92C463.18 216.05 464.09 217.02 464.16 218.26L464.73 229.77C464.75 230.09 464.97 230.19 465.11 230.22C465.25 230.25 465.49 230.26 465.64 229.97L473.06 215.33L474.84 216.23L467.43 230.87C466.91 231.89 465.82 232.41 464.7 232.17C463.58 231.93 462.8 231.01 462.74 229.87L462.17 218.36C462.15 218 461.89 217.92 461.74 217.91C461.59 217.89 461.32 217.92 461.23 218.26L456.07 237.49Z" fill="black"/>
<path d="M661.661 136.848L661.347 138.823L690.616 143.488L690.931 141.513L661.661 136.848Z" fill="black"/>
<path d="M663.671 145.806L662.944 147.669L690.423 158.401L691.151 156.538L663.671 145.806Z" fill="black"/>
<path d="M664.059 153.53L662.543 154.834L681.975 177.415L683.491 176.11L664.059 153.53Z" fill="black"/>
<path d="M634.28 689.68L634.17 689.67L576.99 683.13L577.22 681.14L634.34 687.67C635.72 687.65 636.47 686.7 636.72 685.82C636.97 684.93 636.8 683.71 635.58 682.99L569.78 651.93C567.73 650.71 566.96 648.42 567.82 646.3C568.68 644.18 570.84 643.07 573.06 643.61L625.25 655.22C626.75 655.58 627.74 654.7 628.14 653.83C628.53 652.98 628.57 651.69 627.41 650.79L583.69 629.18L584.58 627.39L628.53 649.13C630.59 650.64 630.73 653 629.96 654.67C629.19 656.34 627.3 657.76 624.81 657.17L572.62 645.56C571.05 645.18 570.06 646.13 569.68 647.06C569.3 647.98 569.35 649.35 570.72 650.17L636.52 681.23C638.4 682.35 639.2 684.34 638.65 686.36C638.08 688.38 636.37 689.68 634.28 689.68Z" fill="black"/>
<path d="M141.82 500.99C141.61 500.99 141.4 500.98 141.19 500.95C139.94 500.77 138.83 500.06 138.14 499L132.9 490.97C131.59 488.97 132.14 486.25 134.13 484.92L141.12 480.23C143.12 478.89 145.84 479.42 147.19 481.4L152.04 488.5C153.31 490.36 152.97 492.86 151.26 494.32L144.67 499.94C143.87 500.63 142.86 500.99 141.82 500.99ZM143.57 481.5C143.11 481.5 142.65 481.63 142.24 481.9L135.25 486.59C134.17 487.32 133.87 488.79 134.58 489.89L139.82 497.92C140.2 498.5 140.8 498.88 141.48 498.98C142.17 499.08 142.85 498.88 143.37 498.43L149.96 492.81C150.89 492.01 151.08 490.65 150.38 489.64L145.53 482.54C145.09 481.86 144.33 481.5 143.57 481.5Z" fill="black"/>
<path d="M160.777 501.75L149.829 513.225L151.276 514.605L162.224 503.131L160.777 501.75Z" fill="black"/>
<path d="M157.442 512.268L154.524 518.165L156.316 519.052L159.234 513.155L157.442 512.268Z" fill="black"/>
<path d="M165.443 501.536L161.361 521.012L163.319 521.422L167.4 501.946L165.443 501.536Z" fill="black"/>
<path d="M188.21 517.26C188.16 517.26 188.12 517.26 188.07 517.26C186.74 517.2 185.61 516.35 185.19 515.09L183.41 509.71L185.31 509.08L187.09 514.46C187.33 515.17 187.96 515.26 188.15 515.26C188.34 515.26 188.98 515.24 189.28 514.55L191.01 510.5C191.43 509.52 192.3 508.82 193.35 508.63C194.4 508.44 195.46 508.77 196.2 509.53L201.43 514.89C201.89 515.36 202.45 515.31 202.83 515.1C203.21 514.89 203.56 514.44 203.41 513.8L200.98 503.4L202.93 502.95L205.36 513.35C205.69 514.75 205.06 516.16 203.8 516.85C202.53 517.54 201.01 517.31 200 516.28L194.77 510.92C194.49 510.63 194.1 510.51 193.72 510.59C193.33 510.66 193.01 510.92 192.86 511.28L191.13 515.33C190.62 516.52 189.49 517.26 188.21 517.26Z" fill="black"/>
<path d="M59.2987 437.086L44.9778 442.001L45.627 443.892L59.9479 438.978L59.2987 437.086Z" fill="black"/>
<path d="M55.337 443.461L47.6377 449.874L48.9177 451.411L56.617 444.998L55.337 443.461Z" fill="black"/>
<path d="M61.044 443.849L55.0588 459.247L56.923 459.972L62.9082 444.573L61.044 443.849Z" fill="black"/>
<path d="M7.40027 398.98C7.18027 398.98 6.95029 398.96 6.73029 398.91L5.00024 398.53L5.43024 396.58L7.16028 396.96C7.48028 397.03 7.81025 396.96 8.07025 396.78C8.34025 396.59 8.51029 396.31 8.55029 395.98L8.73029 394.58C8.85029 393.69 9.34026 392.89 10.0803 392.38C10.8203 391.87 11.7502 391.71 12.6202 391.92L16.0602 392.77C16.4302 392.86 16.8103 392.77 17.0903 392.52C17.3803 392.27 17.5203 391.91 17.4903 391.53L17.3203 389.61C17.2303 388.59 17.6203 387.61 18.3903 386.94C19.1603 386.27 20.1802 386.01 21.1802 386.25L23.4302 386.78C23.8002 386.87 24.1703 386.77 24.4603 386.52C24.7403 386.27 24.8903 385.91 24.8503 385.53C24.7403 384.43 25.2003 383.38 26.0803 382.71C26.9603 382.04 28.1002 381.88 29.1302 382.28L31.7103 383.27L30.9903 385.14L28.4103 384.15C28.0303 384 27.6203 384.06 27.2903 384.31C26.9603 384.56 26.8003 384.94 26.8403 385.35C26.9403 386.38 26.5503 387.35 25.7803 388.03C25.0103 388.71 23.9803 388.97 22.9803 388.73L20.7303 388.2C20.3603 388.12 19.9903 388.21 19.7003 388.45C19.4203 388.7 19.2702 389.05 19.3102 389.43L19.4803 391.35C19.5703 392.37 19.1703 393.37 18.3903 394.03C17.6103 394.69 16.5603 394.95 15.5703 394.7L12.1302 393.85C11.8102 393.77 11.4803 393.83 11.2003 394.02C10.9203 394.21 10.7503 394.49 10.7003 394.83L10.5203 396.23C10.4003 397.1 9.93026 397.89 9.20026 398.4C8.68026 398.78 8.05027 398.98 7.40027 398.98Z" fill="black"/>
<path d="M660.23 72.88C660.2 72.88 660.18 72.88 660.15 72.88C659.13 72.85 658.25 72.25 657.85 71.32L656.23 67.56C656.09 67.24 655.81 67.2 655.69 67.2C655.69 67.2 655.69 67.2 655.68 67.2C655.56 67.2 655.27 67.24 655.14 67.57L653.33 72.09L651.47 71.35L653.28 66.83C653.67 65.85 654.6 65.22 655.65 65.2C655.66 65.2 655.67 65.2 655.68 65.2C656.72 65.2 657.65 65.81 658.06 66.76L659.68 70.52C659.81 70.83 660.09 70.87 660.21 70.88C660.32 70.88 660.6 70.86 660.75 70.55L661.92 68.21C662.31 67.43 663.06 66.9 663.92 66.8C664.79 66.69 665.64 67.02 666.2 67.69L668.13 69.94C668.34 70.18 668.6 70.15 668.7 70.13C668.8 70.11 669.05 70.03 669.14 69.72L670.31 65.81C670.57 64.95 671.24 64.29 672.12 64.05C672.99 63.81 673.91 64.04 674.56 64.66L678.34 68.2C678.56 68.41 678.82 68.37 678.92 68.33C679.02 68.3 679.25 68.2 679.32 67.9L680.06 64.7C680.27 63.81 680.9 63.11 681.77 62.82C682.64 62.53 683.57 62.72 684.26 63.31L686.97 65.62C687.21 65.82 687.46 65.76 687.56 65.72C687.66 65.68 687.89 65.57 687.94 65.26L688.45 62.09C688.6 61.15 689.26 60.37 690.16 60.06C691.07 59.75 692.06 59.96 692.76 60.61C693.02 60.85 693.29 60.76 693.4 60.72C693.51 60.67 693.75 60.53 693.75 60.18V57.9H695.75V60.18C695.75 61.23 695.16 62.13 694.2 62.55C693.24 62.97 692.17 62.79 691.4 62.08C691.17 61.86 690.91 61.92 690.81 61.96C690.71 61.99 690.47 62.11 690.42 62.42L689.91 65.59C689.76 66.52 689.14 67.28 688.25 67.61C687.36 67.94 686.4 67.77 685.68 67.15L682.97 64.84C682.74 64.65 682.5 64.7 682.4 64.73C682.31 64.76 682.08 64.87 682.01 65.16L681.27 68.36C681.06 69.27 680.4 69.98 679.5 70.26C678.6 70.53 677.66 70.31 676.97 69.67L673.19 66.13C672.97 65.93 672.73 65.97 672.63 65.99C672.53 66.02 672.3 66.11 672.22 66.39L671.05 70.3C670.78 71.21 670.03 71.89 669.11 72.09C668.18 72.29 667.22 71.96 666.61 71.24L664.68 68.99C664.49 68.77 664.26 68.78 664.16 68.79C664.07 68.8 663.83 68.86 663.7 69.11L662.53 71.45C662.1 72.33 661.22 72.88 660.23 72.88Z" fill="black"/>
<path d="M657.302 57.6778L656.295 59.4054L665.84 64.9724L666.847 63.2448L657.302 57.6778Z" fill="black"/>
<path d="M666.29 53.999L665.319 55.7474L677.723 62.6381L678.695 60.8897L666.29 53.999Z" fill="black"/>
<path d="M677.631 52.7701L676.774 54.5771L686.983 59.4203L687.841 57.6133L677.631 52.7701Z" fill="black"/>
<path d="M574.4 832.54L572.56 831.76L575.62 824.56C576.36 822.82 577.82 821.53 579.64 821.01C581.46 820.49 583.38 820.82 584.93 821.91L588.11 824.15C589.22 824.93 590.59 825.14 591.88 824.7C593.17 824.27 594.14 823.28 594.56 821.99L595.11 820.28C595.73 818.33 597.28 816.82 599.23 816.23C601.18 815.64 603.31 816.05 604.9 817.32L608.13 819.89C609.24 820.77 610.65 821.04 612 820.62C613.35 820.21 614.37 819.19 614.79 817.84L615.62 815.17C616.23 813.21 617.7 811.72 619.66 811.1C621.62 810.47 623.68 810.83 625.32 812.07L629.03 814.88C630.15 815.73 631.56 815.97 632.9 815.53C634.24 815.09 635.23 814.06 635.63 812.71L637.02 807.98C637.63 805.91 639.23 804.33 641.31 803.74C643.38 803.16 645.58 803.68 647.18 805.13L650.16 807.84C651.27 808.85 652.8 809.2 654.24 808.75C655.68 808.31 656.75 807.17 657.11 805.71C657.64 803.53 659.24 801.84 661.4 801.21C663.55 800.58 665.81 801.12 667.44 802.67L672.08 807.08L670.7 808.53L666.06 804.12C664.95 803.07 663.42 802.7 661.96 803.13C660.5 803.56 659.41 804.7 659.05 806.19C658.53 808.35 656.95 810.02 654.83 810.67C652.71 811.32 650.46 810.82 648.82 809.32L645.84 806.61C644.76 805.62 643.27 805.27 641.86 805.67C640.45 806.07 639.36 807.14 638.95 808.54L637.56 813.27C636.98 815.23 635.48 816.78 633.54 817.42C631.59 818.06 629.46 817.7 627.83 816.47L624.12 813.66C623.01 812.82 621.61 812.58 620.28 813C618.95 813.42 617.95 814.43 617.54 815.76L616.71 818.43C616.1 820.39 614.56 821.92 612.6 822.53C610.64 823.13 608.51 822.73 606.9 821.45L603.67 818.88C602.57 818 601.17 817.73 599.82 818.14C598.47 818.55 597.45 819.55 597.02 820.89L596.47 822.6C595.86 824.51 594.42 825.96 592.52 826.6C590.62 827.24 588.6 826.94 586.96 825.78L583.78 823.54C582.73 822.8 581.43 822.58 580.19 822.93C578.96 823.28 577.96 824.16 577.46 825.34L574.4 832.54Z" fill="black"/>
<path d="M509.05 782.99H507.05V773.4C507.05 772.08 506.37 770.9 505.24 770.23C504.11 769.56 502.74 769.54 501.59 770.17L497.36 772.5C495.58 773.48 493.47 773.45 491.73 772.41C489.98 771.38 488.94 769.55 488.94 767.52V764.22C488.94 762.97 488.34 761.85 487.3 761.15C486.26 760.45 484.99 760.33 483.84 760.82L478.41 763.09C476.65 763.83 474.65 763.64 473.07 762.58C471.48 761.52 470.53 759.75 470.53 757.85V756.76C470.53 755.51 469.94 754.4 468.9 753.7C467.86 753 466.6 752.87 465.45 753.35L460.25 755.48C458.49 756.2 456.5 756 454.93 754.94C453.35 753.88 452.41 752.12 452.41 750.22C452.41 748.96 451.81 747.84 450.76 747.15C449.71 746.45 448.44 746.34 447.29 746.83L443.25 748.54C441.69 749.2 439.94 749.13 438.44 748.36C436.94 747.59 435.86 746.21 435.49 744.56L434.97 742.28C434.72 741.2 434.02 740.3 433.04 739.81C432.05 739.31 430.91 739.28 429.9 739.73L422.72 742.88L421.92 741.05L429.1 737.9C430.66 737.22 432.43 737.26 433.95 738.03C435.47 738.8 436.56 740.19 436.94 741.85L437.46 744.13C437.7 745.2 438.4 746.09 439.37 746.59C440.34 747.09 441.48 747.13 442.49 746.71L446.53 745C448.29 744.25 450.29 744.44 451.89 745.5C453.48 746.56 454.43 748.33 454.43 750.24C454.43 751.49 455.02 752.6 456.06 753.3C457.1 754 458.35 754.12 459.51 753.65L464.71 751.52C466.47 750.8 468.46 751 470.03 752.06C471.61 753.12 472.55 754.88 472.55 756.78V757.87C472.55 759.12 473.15 760.24 474.19 760.94C475.23 761.64 476.5 761.76 477.65 761.27L483.08 759C484.84 758.27 486.84 758.46 488.42 759.51C490.01 760.57 490.95 762.34 490.95 764.24V767.54C490.95 768.86 491.63 770.04 492.76 770.71C493.89 771.38 495.26 771.4 496.41 770.77L500.64 768.44C502.42 767.46 504.53 767.49 506.27 768.53C508.02 769.56 509.06 771.39 509.06 773.42V782.99H509.05Z" fill="black"/>
<path d="M733.92 476.41C724.68 491.41 700.08 499.27 688.1 483.15C674.79 465.23 684.28 427.12 711.98 425.52C718.3 425.15 724.6 427.22 729.58 431.34C742.22 441.81 744.28 459.59 733.92 476.41Z" fill="black"/>
<path d="M702.33 456.55C698.93 467.06 695.03 478.68 690.14 472.72C687.1 469.01 685.25 460.09 687.42 451.61C689.13 444.93 693.91 438.52 698.66 435.16C701.12 433.42 703.61 433.02 705.6 434.08C710.68 436.77 706.14 444.76 702.33 456.55Z" fill="#74BAAB"/>
<path d="M510.29 164.64C505.16 170.13 499.39 176.14 497.02 169.88C495.55 165.99 496.24 159.14 499.94 154.45C502.85 150.75 508.07 148.65 512.54 148.58C514.86 148.55 516.87 149.43 518.17 151.06C521.45 155.21 516.04 158.48 510.29 164.64Z" fill="#74BAAB"/>
<path d="M175.12 466.11C175.19 462.52 175.33 458.54 178.08 460C179.79 460.91 183.08 468.12 179.31 472.53C178.6 473.36 177.55 473.62 176.6 473.45C174.19 473.03 175.04 470.13 175.12 466.11Z" fill="#74BAAB"/>
<path d="M247.07 559.4C247.5 558.47 246.73 557.56 244.81 556.85C240.98 555.44 233.53 554.43 219.08 555.43C205.76 556.35 199.07 559.16 195.72 561.57C193.93 562.86 194.07 563.83 195.71 564.56C215.85 567.98 236.52 565.3 247.07 559.4Z" fill="black"/>
<path d="M597.13 473.76C595.46 466.31 590.87 443.42 590.82 443.19L592.78 442.8C592.83 443.03 597.41 465.89 599.08 473.32L597.13 473.76Z" fill="black"/>
<path d="M617.4 476.19C615.34 473.2 613.54 469.22 612.46 465.28C612.08 463.9 611.73 462.56 611.4 461.27C609.71 454.8 608.38 449.68 605.15 446.73L606.5 445.25C610.17 448.6 611.57 453.97 613.34 460.76C613.67 462.04 614.02 463.37 614.4 464.74C615.43 468.48 617.12 472.24 619.06 475.05L617.4 476.19Z" fill="black"/>
<path d="M626.89 476.65L624.89 476.59C624.94 475.02 624.79 472.97 624.64 470.8C624.49 468.57 624.31 466.05 624.31 463.61C624.31 459.16 625.41 454.82 627.25 451.98L628.93 453.07C627.29 455.6 626.31 459.53 626.31 463.61C626.31 465.97 626.47 468.36 626.63 470.66C626.79 472.88 626.94 474.98 626.89 476.65Z" fill="black"/>
<path d="M691.68 556.19C689.56 556.19 687.47 555.3 686 553.59L669.35 534.13L670.87 532.83L687.52 552.29C689.45 554.55 692.88 554.85 695.17 552.95L744.77 507.78C747.49 505.45 750.55 503.5 753.88 501.98L754.71 503.8C751.55 505.24 748.65 507.09 746.09 509.28L696.48 554.46C695.08 555.62 693.37 556.19 691.68 556.19Z" fill="black"/>
<path d="M694.98 643.18C686.43 643.18 677.42 639.49 669.64 629.63L650.48 608.42L651.96 607.08L671.17 628.34C685.23 646.15 703.48 642.62 714.83 634.21C723.91 627.48 736.55 616.72 752.4 602.22L753.75 603.7C737.85 618.24 725.15 629.05 716.02 635.82C710.24 640.09 702.8 643.18 694.98 643.18Z" fill="black"/>
<path d="M570.47 479.72C569.36 477.77 568.44 475.82 567.49 473.38L569.36 472.66C570.28 475.03 571.13 476.85 572.21 478.73L570.47 479.72Z" fill="black"/>
<path d="M582.25 476.22C580.63 473.19 577.59 466.91 575.43 458.93L577.36 458.41C579.46 466.2 582.43 472.32 584.01 475.27L582.25 476.22Z" fill="black"/>
<path d="M720.28 505.58C704.11 505.58 689.27 496.75 681.55 482.53L683.31 481.57C690.68 495.14 704.85 503.58 720.28 503.58V505.58Z" fill="black"/>
<path d="M449.18 204.64C447.59 204.64 445.64 203.78 443.57 202.12C441.29 200.3 437.76 197.45 434.87 195.13L436.13 193.57C439.02 195.9 442.54 198.74 444.82 200.56C446.95 202.27 449.02 203.03 449.97 202.45C450.83 201.93 451.03 200.16 450.54 197.58C449.95 194.5 450.1 192.03 451 190.22L452.79 191.11C452.31 192.08 451.87 193.92 452.5 197.2C453.19 200.8 452.69 203.14 451 204.16C450.47 204.48 449.85 204.64 449.18 204.64Z" fill="black"/>
<path d="M522.36 215.56L520.93 214.16L547.71 186.74C557.11 177.11 572.35 176.59 582.39 185.55L581.06 187.04C571.82 178.79 557.8 179.27 549.15 188.13L522.36 215.56Z" fill="black"/>
<path d="M582.028 220.576L554.856 247.879L556.274 249.29L583.446 221.987L582.028 220.576Z" fill="black"/>
<path d="M152 479.92L145.9 470.89C143.75 468.05 140.56 466.2 136.97 465.73C133.38 465.27 129.83 466.24 126.98 468.47L125.75 466.9C129.03 464.33 133.1 463.21 137.23 463.75C141.36 464.29 145.01 466.41 147.53 469.73L153.66 478.8L152 479.92Z" fill="black"/>
<path d="M185.389 528.312L184.205 551.602L186.202 551.704L187.387 528.414L185.389 528.312Z" fill="black"/>
<path d="M245.578 499.758L243.638 500.247L253.414 539.035L255.354 538.546L245.578 499.758Z" fill="black"/>
</svg>
